<svg xmlns="http://www.w3.org/2000/svg" viewBox="0 0 32 32">
  <!-- Background circle -->
  <circle cx="16" cy="16" r="15" fill="#1c1c1e"/>
  <!-- Italian Greyhound silhouette - elegant, slim dog profile -->
  <g fill="#ffffff" transform="translate(4, 6)">
    <!-- Head and neck -->
    <path d="M20 4c0.5-1 1.5-2 2.5-2.5c0.5-0.2 1 0 1.2 0.5c0.2 0.5-0.1 1-0.5 1.2c-0.8 0.4-1.3 1.2-1.5 2c-0.1 0.5-0.5 0.8-1 0.8h-0.5c-0.3 0-0.5-0.3-0.5-0.6c0-0.5 0.1-1 0.3-1.4z"/>
    <!-- Body -->
    <path d="M18 6c-1 0-2 0.5-2.5 1.5c-0.5 1-1 2.5-1.5 4c-0.5 1.5-2 3-4 4c-2 1-4 1.5-6 2c-1 0.2-2 0.8-2 1.5c0 0.5 0.5 1 1 1c2 0 5-0.5 7-1.5c2-1 3.5-2.5 4.5-4c0.5-0.8 1-1.5 1.5-2c0.5-0.5 1-0.5 1.5 0c0.5 0.5 1 1.5 1 2.5c0 1-0.5 2-1 3c-0.3 0.5-0.3 1 0.2 1.3c0.5 0.3 1 0.2 1.3-0.2c0.8-1.2 1.5-2.8 1.5-4.5c0-1.5-0.5-3-1.5-4c-0.5-0.5-0.5-1 0-1.5c0.5-0.5 1-1.5 1-2.5c0-0.5-0.5-1-1-1h-0.5z"/>
    <!-- Front leg -->
    <path d="M8 14c-0.5 1-0.5 2-0.3 3c0.2 1 0.5 2 0.5 3c0 0.5-0.2 1-0.7 1c-0.5 0-0.8-0.3-0.8-0.8c0-0.7-0.2-1.5-0.4-2.2c-0.2-0.7-0.2-1.5 0-2.2c0.2-0.7 0.5-1.3 1-1.8c0.3-0.3 0.7-0.3 1 0c0.2 0.3 0.2 0.7-0.3 1z"/>
    <!-- Back leg -->
    <path d="M16 12c0.5 1 0.8 2 0.8 3c0 1-0.3 2-0.8 3c-0.3 0.5-0.3 1 0.2 1.3c0.5 0.3 1 0.1 1.3-0.4c0.6-1.2 1-2.5 1-4c0-1.5-0.5-2.8-1.2-4c-0.3-0.5-0.8-0.6-1.2-0.3c-0.4 0.3-0.5 0.8-0.1 1.4z"/>
    <!-- Ear -->
    <ellipse cx="21" cy="3" rx="1.5" ry="2" fill="#ffffff"/>
  </g>
</svg>
